<?xml version="1.0" encoding="iso-8859-1"?>
<!-- Generator: Adobe Illustrator 19.0.0, SVG Export Plug-In . SVG Version: 6.00 Build 0)  -->
<svg version="1.1" id="Capa_1" xmlns="http://www.w3.org/2000/svg" xmlns:xlink="http://www.w3.org/1999/xlink" x="0px" y="0px"
	 viewBox="0 0 512.008 512.008" style="enable-background:new 0 0 512.008 512.008;" xml:space="preserve">
<g>
	<g>
		<path d="M397.732,151.784L364.26,96.008h3.744c8.832,0,16-7.168,16-16c0-8.832-7.168-16-16-16H262.628L203.332,4.68
			c-6.24-6.24-16.384-6.24-22.624,0s-6.24,16.384,0,22.624l36.672,36.704h-73.376c-8.832,0-16,7.168-16,16c0,8.832,7.168,16,16,16
			h3.744l-33.472,55.776c-1.504,2.496-2.272,5.344-2.272,8.224v288c0,3.168,0.928,6.24,2.688,8.864l32,48
			c2.976,4.48,7.968,7.136,13.312,7.136h192c5.344,0,10.336-2.656,13.312-7.136l32-48c1.76-2.624,2.688-5.696,2.688-8.864v-288
			C400.004,157.096,399.236,154.248,397.732,151.784z M185.06,96.008h141.888l38.4,64H146.66L185.06,96.008z M343.428,480.008
			H168.58l-21.344-32h217.536L343.428,480.008z M368.004,416.008h-224v-64h40.448c18.24,20.448,43.904,32,71.552,32
			s53.312-11.552,71.552-32h40.448V416.008z M368.004,320.008h-48c-5.024,0-9.76,2.368-12.768,6.368
			c-24.576,32.608-77.888,32.608-102.432,0c-3.04-4-7.776-6.368-12.8-6.368h-48v-32h48c5.024,0,9.76-2.368,12.768-6.368
			c24.576-32.608,77.888-32.608,102.432,0c3.04,4,7.776,6.368,12.8,6.368h48V320.008z M368.004,256.008h-40.448
			c-18.24-20.448-43.904-32-71.552-32s-53.312,11.552-71.552,32h-40.448v-64h224V256.008z"/>
	</g>
</g>
<g>
</g>
<g>
</g>
<g>
</g>
<g>
</g>
<g>
</g>
<g>
</g>
<g>
</g>
<g>
</g>
<g>
</g>
<g>
</g>
<g>
</g>
<g>
</g>
<g>
</g>
<g>
</g>
<g>
</g>
</svg>
