<?xml version="1.0" encoding="iso-8859-1"?>
<!-- Generator: Adobe Illustrator 19.0.0, SVG Export Plug-In . SVG Version: 6.00 Build 0)  -->
<svg version="1.1" id="Capa_1" xmlns="http://www.w3.org/2000/svg" xmlns:xlink="http://www.w3.org/1999/xlink" x="0px" y="0px"
	 viewBox="0 0 512 512" style="enable-background:new 0 0 512 512;" xml:space="preserve">
<g>
	<g>
		<path d="M362.667,341.333h-7.49c-7.371-15.397-19.78-27.806-35.177-35.177v-58.327c3.044-1.964,5.936-4.198,8.563-6.819
			c7.708-7.708,12.833-17.896,14.417-28.677l18.896-126.5c0.521-3.625,0.792-7.271,0.792-11.167c0-19.99-7.792-38.76-21.958-52.875
			C326.625,7.729,307.917,0,288,0c-0.063,0-0.146,0-0.229,0c-41,0.125-74.396,33.583-74.438,74.865
			c0,3.677,0.271,7.344,0.792,10.979l18.542,126.5c1.583,10.771,6.708,20.948,14.396,28.646c2.693,2.699,5.733,4.975,8.938,6.991
			v58.176c-15.397,7.371-27.806,19.78-35.177,35.177h-50.156c0-23.531-19.146-42.667-42.667-42.667
			C128,275.135,108.854,256,85.333,256h-32c-5.896,0-10.667,4.771-10.667,10.667v234.667c0,5.896,4.771,10.667,10.667,10.667h32
			C108.854,512,128,492.865,128,469.333c23.521,0,42.667-19.135,42.667-42.667h65.243C249.378,439.822,267.734,448,288,448
			s38.622-8.178,52.09-21.333h22.577C374.438,426.667,384,436.24,384,448v53.333c0,5.896,4.771,10.667,10.667,10.667h64
			c5.896,0,10.667-4.771,10.667-10.667V448C469.333,389.188,421.479,341.333,362.667,341.333z M106.667,469.333
			c0,11.76-9.563,21.333-21.333,21.333H64V277.333h21.333c11.771,0,21.333,9.573,21.333,21.333V469.333z M149.333,426.667
			c0,11.76-9.563,21.333-21.333,21.333V320c11.771,0,21.333,9.573,21.333,21.333V426.667z M170.667,405.333v-42.667h43.745
			c-0.509,3.514-1.078,7.014-1.078,10.667c0,11.495,2.828,22.263,7.49,32H170.667z M253.771,209.24L235.25,82.75
			c-0.396-2.604-0.583-5.25-0.583-8.135c0.042-29.292,23.896-53.198,53.188-53.281c0.042,0,0.104,0,0.146,0
			c14.208,0,27.583,5.521,37.646,15.563c10.125,10.083,15.688,23.5,15.688,38.01c0,2.615-0.188,5.219-0.563,7.792l-18.875,126.5
			c-0.938,6.292-3.938,12.24-8.417,16.729c-5.646,5.635-13.146,8.74-21.104,8.74h-9.104c-7.875,0-15.563-3.188-21.104-8.75
			C257.604,221.354,254.708,215.583,253.771,209.24z M298.667,255.385v44.359c-3.514-0.509-7.014-1.078-10.667-1.078
			s-7.152,0.569-10.667,1.078v-44.34c1.977,0.236,3.936,0.595,5.938,0.595h9.104C294.513,256,296.579,255.642,298.667,255.385z
			 M288,426.667c-29.417,0-53.333-23.927-53.333-53.333S258.583,320,288,320s53.333,23.927,53.333,53.333
			S317.417,426.667,288,426.667z M448,490.667h-42.667V448c0-23.531-19.146-42.667-42.667-42.667h-7.49
			c4.661-9.737,7.49-20.505,7.49-32c0-3.652-0.569-7.152-1.078-10.667h1.078C409.729,362.667,448,400.948,448,448V490.667z"/>
	</g>
</g>
<g>
</g>
<g>
</g>
<g>
</g>
<g>
</g>
<g>
</g>
<g>
</g>
<g>
</g>
<g>
</g>
<g>
</g>
<g>
</g>
<g>
</g>
<g>
</g>
<g>
</g>
<g>
</g>
<g>
</g>
</svg>
